<svg focusable="false" xmlns="http://www.w3.org/2000/svg" width="200" height="300"><path fill="#F2E9CE" d="M0 0h200v300H0z"/><path fill="#FFF" d="M0 215h200v85H0z"/><path d="M0 238.69L16 246l15 9 10 2 7 5 14 1 19 7 24 19 11 1 3 3h6.66l9.79 7H0zM0 211.06L15 209l18-5 26-5 13-6 34-12 29-13 3-4 7-3 6-3v-2.82L161 145l11-6 17-22 11-11.07v109.89H0z"/><circle fill="#E9BF5D" cx="99.75" cy="149.5" r="32"/><g fill="#A7C57D"><path d="M114 115l5.69 2.5L124 123l.45 4.44.2 1.95L121 128l-5.25-5.8.25-2.2z"/><path d="M128 128l5 3h-6l-2.35-1.61-.15-1.39z"/></g><g><path d="M92.5 180.58V179H92v1.49l-.94-.04-.06-.04v-1.91h-.5v1.24l-1.26-.51v-1.73h-1.71v1.08l-.95.88-2.08 4.91 2-.37-1 4.41 1.32-.41 1.18-3.75h2.5l-1 3.75h1l1-5h-3l.51-1.25h2.88z"/></g></svg>