<svg xmlns="http://www.w3.org/2000/svg" width="200" height="302"><path fill="#7ba3d1" d="M0 0h200v302H0z"/><path fill="#d8e6db" d="m85 274 7-11-3.5-15.44 6.5.44 10 7-8-13h10l10 2-10-7-7-7.5 17 7.87-5-12.37 14 8-8-14 2-9-8-13 10-10 7-17-12 7-17 .19 7-4.17 13-5.02 12.26-17v-12.24l-8.8 12.49L112 159H98l10.63-8L122 141l10.26-17.98L136 109l-14 10-9 2 18-17 7-19h-4.81L144 67v-5.09L134 64l4-7-5-22-9-9-12-3-14 3-10 10-9 9-6 24 2 7-5-3-4 16-3 18-4 14-4 11 3 10 7 13 8 10-12-10-5-9-8-8-1 5 9 23 4 15-7-10 1 9 5 14 15 22-14-14 1 7 17 25-9-2-5 1 10 5 8 8 3 15v13z"/></svg>