<svg focusable="false" xmlns="http://www.w3.org/2000/svg" width="200" height="300"><path fill="#C3954F" d="M0 0h200v300H0z"/><path fill="#D48730" d="M82 39l7-2 16 8 7 6 21 13 14 21h8.26L153 75l7-12 28-9 12 .01V300H0V142.73L25 121l27-15 3-5z" id="Flame_BG"/><g id="Flames"><path fill="#E4E0CE" d="M31 74l1-29-2-10 5 3 4 7 2 10 10-22 8-12 2-5-2-6 4 6 5 14-1 9-3 5 7.15-2.5L74 34l1-13 5 7 3 9-1 15 4-3 3-3 2-6-3-5 1-1 6 6v4.97L92 54l5-3 1-7 4 6 3 16v7l-2 11-6 11-7 5-9 4H64l-12-4-14-11-4-9zM125 85l6 6 2 7v3.45l2-5.45 1-7-3-10-5-7-2-5v-5l3-9 1 9 12 12 3 6 1 6 2-5-1-4-2-5-5-7 1-6 4 5 6 7 4 7 2 7v11.07l5-4.07v-5.48l2-1.52 3 6 6 16 1 6-1 11-2 4-4 5-10 6-4 1-4 2h-4.54l-5.46-3-8-1-6-3.48-6-8.52v-10.22l3-8.78 2-5 2-5v-6z"/><path fill="#C2DFF4" d="M149 8l3 8v4l3 4-3-8.97L154 9l6-6-1 3 1 4.73 5 5.27v-1.96l1-3.04 2-3 5-3 5.97-2L176 9v5l1 4 1-3 5-6 4-2 2-2v8.96L188 16v2l4 11v12.54L189 54l-3 4-3 2-11 4h-10.76L155 62l-7.01-9-3.99-6-2-4v-7.64l1-4.36.75-4 1.75-4.54L147 18z"/><path fill="#85B1DD" d="M55 111l3 3 .53 4.78L54 125l-8 5-3 5 5 10 7-12 6-4h3l-4 3-3 5v7l.9 6 5.1-5 4.5-2.36 4.5.36-6 3-1 3 1 8 1 7-1 7-6 8-11 6-5 1-11-1-9-2-5-6-4-7-2-6 1-5.11 1-2.89 3-5-1 5 1.57 2.09L22 162h3l-3-8-.5-5 .5-5 1-4 4-5 3-3 3-1.5-3.5 4.5-3 6 3.5 7 4.5 3-1.5-7-.14-5.55L35 134l1.5-3 4.5-5 9-5 4-5z"/><path fill="#AC5B32" d="M107.5 159.5l.5-4.65 1-3.85 4-4 5.26-3 .74 1-5 4-2.5 3.5.5 5.5 2 2.5 2-5 1.96-2.5.54 5.64 3 7.86.5 2.74-.5 4.57-2 5.69-6 4-12-1L95 175l-1.5-5.5-.5-3.12.25-3.38 2.25-3.5.96 4L99 165l1.5-.5L99 161l.5-4.82 2.5-3.68 2.5-1-1.5 1.99-1 2.51 2 3 2.5 1.5z"/><path fill="#FCBF56" d="M147 167v4.66l6 10.34 4 8 2 10 2-3 2-6-3-11 2-4 2-3 3-3-1 5 2.7 9 3.3 7 1 10-2 7-2 6 1 1 1-2 5-1 3-6-1-9 3 6 2 8-1 7-1 6-3 5h1.93l4.07-3 1-3-1-3 3 7-1 5-5 7-4 4-8 7-8 3-7 2-10-2-12.76-8-3.24-4-9-19.55 2-11.45 3-4.5 12-7.5 3-3 1-3 1 2 1 4-3 6h5l5.25-6 .75-3 .5-3-6.5-14-1-4.57 2.1-4.29z"/><path fill="#E4E0CE" d="M80 172l-1 5 2 8 7 13 7 9 4 9 7 9 6 24-2 19-8 11-15 7-6 2-6 1-9 3-8-1.75-9-1.75-13-7.5-4-1-5-5-5-8 1-11 5-14 6-12 7-8 1.5-7.12L46 221v7l-2 5-3 9 6-8 6-15-1-6-7-15 8.5 5 6.5 7 3 7v6l2 2-2 5 5-4 1-13 5 4 3 6v9l3-6 1-5-4.22-13.12-6.3-18.53L73 179l2-3z"/></g></svg>