<svg focusable="false" xmlns="http://www.w3.org/2000/svg" width="200" height="297" viewBox="0 0 200 297"><path fill="#FDF3D2" d="M0 0h200v297H0z"/><path fill="#8CADAC" d="M9 42h182v247H9z"/><path fill="#636166" d="M191 289H9V48.5s56.2-.3 103 11.5c47.5 12 79 31 79 31v198z"/><path fill="#977657" d="M151 289H9v-70s47.3 2.7 90 23c45.3 21.5 52 47 52 47z"/><path fill="#D54438" d="M84 238.5l5.7 3.5-8 16.7L97 276l10.7-2.7 6-10.6-3.4-20.7 2-9.3-8-14-8.6-1.4M115.7 289l17.3-22.3 8.7 2.6 2.6 8-2.6 5.4 2.6 6.3"/><path fill="#FFF" d="M98.8 206.8l-5.8 5.8s2.8 3.5 6 4.2 5 0 5 0l-.2-7.5.2-3.8-2.5 2.8-2 .5-.7-2zM132.3 258.8l.7 7.8s1 1.3 4.2 1.8 4.5.8 4.5.8l.8-5.5 2.3-6.2-4.3 4.8-5.2-.3-3-3.2z"/></svg>