<svg focusable="false" xmlns="http://www.w3.org/2000/svg" width="200" height="295" viewBox="0 0 200 295"><path fill="#DD9FCD" d="M0 90h200v165H0z"/><path fill="#B88758" d="M118 247l18-21-4-26 6 8-.8-17.5-.2-4.5 7 10-3-24 34-14 2-22 7 17 3-26 6 11 2-16 5 4v129h-75"/><path fill="#8F3625" d="M0 255h200v40H0z"/><path fill="#D2564E" d="M118 151l-19-12-6-10-33-13 16-12 20-1 5 7 7 7 4 18 6 5M0 119l21-3-10-12-11-5"/><path fill="#4F573F" d="M0 255v-94l70.1 62.8L140 255"/><path fill="#211812" d="M185 181c-11 0-20 9-20 20v54h35v-67.2c-3.7-4.2-9-6.8-15-6.8z"/><path fill="#F0B16E" d="M27 130h27v109H27z"/><path fill="#FDDA9F" d="M25.5 239h30v16h-30zM143.5 239h30v16h-30z"/><path fill="#F0B16E" d="M145 130h27v109h-27z"/><path fill="#BE7C45" d="M200 105.1V0H0v105.3c15.9 4.2 27 13.7 27 24.7h27c0-14.9 20.4-27 45.5-27s45.5 12.1 45.5 27h27c0-11.2 11.6-20.9 28-24.9z"/><path fill="#8C7C42" d="M40.5 98L27 130h27"/><path fill="#C98F3C" d="M45 119l-4.5 7.2L36 119l4.5-7.2"/><path fill="#8C7C42" d="M158.5 98L145 130h27"/><path fill="#C98F3C" d="M163 119l-4.5 7.2-4.5-7.2 4.5-7.2"/><path fill="#FFFFFF" d="M171 61l1 6-2 2-1-2.3"/><path fill="#5B3D1D" d="M12.1 142.1l12.1 6.5 2.8 5.6v16.7L1 158.8"/><linearGradient id="b" gradientUnits="userSpaceOnUse" x1="137" y1="49.25" x2="169" y2="49.25"><stop offset="0" stop-color="#F2CE71" stop-opacity="0"/><stop offset="1" stop-color="#F2CE71"/></linearGradient><path fill="url(#b)" d="M137 33l24 36.5 8-2.8L144 29"/><circle fill="#D4A85F" cx="165.5" cy="69.5" r="4.5"/><path fill="#FFFFFF" d="M157 69l3 2.7 4 .3-1-2"/><path fill="#EFEFEF" d="M18 172h9v16l-3 4-.6 3c-.2 1.1-1.3 1.8-2.4 1.6l-3-.6-1-4 1-6.7V172z"/><path fill="none" stroke="#000102" stroke-width="4" stroke-miterlimit="10" d="M72 185l61 34"/><path fill="#687475" d="M54 171v22l9 1 4 1 5-4 6-23 8 10-1 4-10 15 16 10 15-24v-5l-7-8-25-31-4 2-4 2-2 5-5 11-2 11"/><path fill="#3E332C" d="M127 114l-3 2-2 2 1 4 5 5h4l7 4 2 4-1 4-4 1 1 2-2 3 6-1 1 2 6.7-7 .3-5-3-4 2-3v-4l-1-3-1-5-2 5s-2-3-2-4-1 3-1 3l-2-5-1 5-5-3 .2 4.1-2.8-.7-.3-4.1-1.5 3.4-1.8-2.4.2-2.3z"/><path fill="#EFEFEF" d="M77.3 198.5L71 208l6 4 1-1 3 3 3 4 5 3 3-1 1-3-8-9 .8-4.2"/><path fill="#D89535" d="M160 127l6 5-16 18-7 4-27 18-15.8-1.5-1.2-.5-2 4 10 20h-9l-14-20 4-8-9-3-10-9 10-3-1-3-4-3-2-4h-2l-1-8 22 12 19-1 4 3v7h2l4 2-3 9 17-15 4-1"/><path fill="#FFFFFF" d="M93.8 188l4.2 6h9l-3-6M117 165l8.8-9.8 2.4-.4-.2 5.2-2.5-2"/><path fill="#D2564E" d="M93 156l12 5-4 7-12-5"/><path fill="#D2564E" d="M106 159l6 5 14.8 1-6 4-10.8-1-8-3"/><path fill="#E9C19C" d="M100 194.2l4 5.8v9l3 3 6 2 4-2v-8l-6-4-4-6M161 128l4 3 8-9 1-2 5-8-1-1-2.2 3.5-.8-.5 3-6-5-3-3.9 6.4-2.1 2.6v-5l-2-1v6"/><path fill="#FFFFFF" d="M156.5 130.5l5.7 5.7 3.8-4.2-6-5"/><path fill="#E9C19C" d="M118 138l10-11h4l7 4 2 4-1 4-4 1 1.6 2.2-2.6 2.8 4-1h2l.7 1.7-1.4 2.5-2.3.8-4 1-5.8 5.2H126l-9 9.8 4-11-1-2-2-1"/><path fill="#FFFFFF" d="M114 147v7l4 .8-1 10.2 4-11-1-2"/><g opacity=".8"><circle fill="#FFFFFF" cx="121.5" cy="131.5" r="3"/><path d="M121.5 129c1.4 0 2.5 1.1 2.5 2.5s-1.1 2.5-2.5 2.5-2.5-1.1-2.5-2.5 1.1-2.5 2.5-2.5m0-1c-1.9 0-3.5 1.6-3.5 3.5s1.6 3.5 3.5 3.5 3.5-1.6 3.5-3.5-1.6-3.5-3.5-3.5z"/><circle fill="#FFFFFF" cx="129.5" cy="139.5" r="3"/><path d="M129.5 137c1.4 0 2.5 1.1 2.5 2.5s-1.1 2.5-2.5 2.5-2.5-1.1-2.5-2.5 1.1-2.5 2.5-2.5m0-1c-1.9 0-3.5 1.6-3.5 3.5s1.6 3.5 3.5 3.5 3.5-1.6 3.5-3.5-1.6-3.5-3.5-3.5z"/><g><path fill="none" stroke="#000000" stroke-miterlimit="10" d="M124 133l4 4"/></g><path fill="none" stroke="#000000" stroke-miterlimit="10" d="M132.5 140.5l5 2"/></g></svg>