<svg focusable="false" class="sprite">
  <style>
    @media (forced-colors: active) {
      .sprite path {
        stroke: LinkText;
      }

      #spoilers path,
      #spoilers circle {
        fill: CanvasText;
        stroke: none;
      }
    }
  </style>
  <defs>
    <symbol id="clear" fill="none"><path stroke="#FFF" stroke-miterlimit="10" d="M4 16L16 4M16 16L4 4"/></symbol>

    <symbol id="link" fill="none" stroke="#FFF" stroke-miterlimit="10"><path d="M17.4 7h4.1c1.7 0 3 1.3 3 3s-1.3 3-3 3h-5c-1.7 0-3-1.3-3-3V8.5"/><path d="M12.6 13H8.5c-1.7 0-3-1.3-3-3s1.3-3 3-3h5c1.7 0 3 1.3 3 3v1.5"/></symbol>

    <symbol id="newer">
      <path fill="none" stroke="#FFF" stroke-miterlimit="10" d="M8 29l14-14L8 1"/>
    </symbol>

    <symbol id="older">
      <path fill="none" stroke="#FFF" stroke-miterlimit="10" d="M22 29L8 15 22 1"/>
    </symbol>

    <symbol id="spoilers">
      <path fill="currentColor" d="M13 1v17.06l-5.42-3.87-.58-.42-.58.42L1 18.06V1h12m1-1H0v20l7-5 7 5V0z"/>
      <path fill="currentColor" d="M7 4v4-4m1-1H6v6h2V3z"/>
      <circle fill="currentColor" cx="7" cy="11" r="1"/>
    </symbol>
  </defs>
</svg>