<svg focusable="false" class="sprite">
  <defs>
    <symbol id="clear" fill="none" stroke="#FFF" stroke-miterlimit="10"><path d="M4 16L16 4M16 16L4 4"/></symbol>

    <symbol id="link" fill="none" stroke="#FFF" stroke-miterlimit="10"><path d="M17.4 7h4.1c1.7 0 3 1.3 3 3s-1.3 3-3 3h-5c-1.7 0-3-1.3-3-3V8.5"/><path d="M12.6 13H8.5c-1.7 0-3-1.3-3-3s1.3-3 3-3h5c1.7 0 3 1.3 3 3v1.5"/></symbol>

    <symbol id="newer">
      <path fill="none" stroke="#FFF" stroke-miterlimit="10" d="M8 29l14-14L8 1"/>
    </symbol>

    <symbol id="older">
      <path fill="none" stroke="#FFF" stroke-miterlimit="10" d="M22 29L8 15 22 1"/>
    </symbol>
  </defs>
</svg>