<svg xmlns="http://www.w3.org/2000/svg" width="200" height="300"><path d="M0 0h200v77H0z"/><path fill="#365547" d="M0 25.33 9 31l7.98-5.67L25.31 31 28 42l-9 5 4 11 15 6 16 9 31-8 7-5 12-2 14 6 11 4 12-6 13-4 7 4 10-1 7 6 8-1 2.28 7 8.72-4-3-5 6-5.8V300H0V25.33z"/><path fill="#553314" d="M0 254h200v26H0z"/><path fill="#1d140a" d="M0 280h200v20H0z"/><path fill="#8d6b2e" d="M32.11 127.79 34 120l6.17 2.5-8.06 5.29z"/><path fill="#53280e" d="M173 91h8.92l-.92 2v41.95l-8-3.95V91z"/><path fill="#8d6b2e" d="M148 114h25v17l-25-17z"/><path fill="#94a077" d="m0 144 12-3 88-57.8 95 59.8h5l-1 3-3 1v8l-10 7 1 26 4 2-4 7v65l-14-2-11.57 2h-6.49L141 258l-6 1-9-1-9 2v6H69v-6l-8-2-8-1-10 2-13-2H9v-23h2l-.5-37-5.5-3-2-3h8v-11l5-1v-19l-2-4-13-8-1-4z"/><path fill="#030303" d="M56 150v-5l3.25-5.43L60 132l5-6 6-4 7-2.77 7-5.23 6-2 1.43-1.05h17.02l4.71 2.05 4.84 4 4.45 6.74 2.26 4.26 1.29 2.43.17 14.12-6.52 9.32-2.65-.38-2 1.51.54 3.38h11.93v5.09l-1.3 5.53-6.58 6.13L117 178l-4 2-2.04 1H73.31l-.94-1.91-3.67-.89-2.82-2.67-1.7-5.03h-3.1V181H45.45v-23H83v-2l-5-2h-2l-3-4H56z"/><path fill="#5b3616" d="M127 199h46.17l-.17 38h-46v-38zM20.14 199h44.05v38H20.14zM72.37 199H118v49.17H72.37z"/><path fill="#e29529" d="m92 157-2 3h8.63l-3.44 4.03L101 164v7.65L94 181H81.69L78 176v-4.35l3-6.65 5-6 6-2z" opacity=".66"/><path fill="#8f742d" d="m83 156 5-3 5.27 1.5 9.6 2.5 2.13 4v4.16l2.38 3.84v3.22L113 180l4-2 5-4 5.17-5-19.22-19.19L92 142h-6.36L79 143l-3 4v6.58l7 2.42zM76 159.23h4.28L74 174l-1.63-7.38 3.63-7.39z" opacity=".66"/><path fill="#2f5f4a" d="M72.37 178.43h-3.39L66 176l-1.82-7-2.18-5 2.18-5.62h4.24l-1.23 5.37 1 5.25 1.81 3 2.37 6.43zM68.7 149.81h3.67l3.63-5.54 4.28-3.96L85 139l6-2 5 3 5 .31 3.84 3.1L111 147l7 6.87h2.65L125 148l-13-15-9-5h-9.45L86 129l-5.72 4.25-4.28 4.24-5.04 3.44L71 145l-2.3 4.81z" opacity=".66"/><path fill="#6b3117" d="M47.24 180h11.58v-3.55l.02-5.45 3.16-2-1.49-8H50.07l-.57 5.62-.28 3.88-1.98 4.82V180zM57.69 149.81H68.7v-4.98l2.26-3.9v-2.31l-.26-3.67 7.3-4.24 6-1.71 3-3 2.5.48 5.69-3.11 6.4 1.98 6.08 2.65 5.33 2 3 3 2 3.59 2.65 4.34L125 148l2.17-3.45-.17-14.12-5-9.43-13-7-11-1-8.5 1.34L85 116l-7 4.83-7 2.17-6.82 6.58L61 134l-2.18 6.93-1.13 5.03v3.85z" opacity=".66"/><g fill="#d0e2cf"><path d="M28.61 149.81H73l3 3.19 7 3v2H15v-2l13.61-6.19zM120.65 153.87l3.67-4.9h50.83L178 151h3.74l4.13 4.13v2.31H116.8v-2.54l3.85-1.03z"/></g></svg>