<svg focusable="false" xmlns="http://www.w3.org/2000/svg" width="200" height="308" viewBox="0 0 200 308"><path fill="#484646" d="M0-.2h200v308H0z"/><path fill="#820213" d="M80.3 60.8l5.5-.6 1.8-2.8 8.1-.5 17.3-1.3-3.3 6.7 8.6-.6 3.4 5.3.6 10.7L105.7 93l-12 1.3-16-8L73 77l-1-9h6.7"/><path fill="#636823" d="M96.5 94.8l-12.2 5.7 7.9-1.2 4.3-2.8 4 4.3M116.5 92.8l-12.7 2.7-.2.5 7.9.8 2-2.1 3.3-.4"/><path fill="#4F591E" d="M102 133.8l-7.2-6.1-13.3 1.8-8.2 5.8-5.8 8.7 5.8 1.5 4.9 2.8 14.8-1.8 8.7-6.3M104.9 132.9l4.6-7.8 6 .3 4.7-4.4h6.8l7.5 4.2-10.5 10-9.5 3.8-9.8.2"/><path fill="#636823" d="M99 93.3l.5 4.7 2.8 27.7-4 44.3h3.7l4.3-43-2.5-31.5-.1-2.5"/><g><path fill="#820213" d="M120.9 268.6l-5.4.3-1.9 2.7-8 .4-17.4 1.3 3.4-6.7-8.7.6-3.3-5.3-.7-10.7 16.7-15.3 12-1.4 16 8 4.6 9.9 1 9.6h-6.6"/><path fill="#636823" d="M104.8 234l12.1-5.6-7.8 1.1-4.3 2.9-4-4.4M84.8 236l12.6-2.6.3-.5-7.9-.9-2 2.2-3.4.3"/><path fill="#4F591E" d="M99.2 195l7.2 6.2 13.4-1.8 8.1-5.9 5.9-8.6-5.9-1.5-4.8-2.9-14.9 1.9-8.6 6.3M96.3 196l-4.5 7.8-6 .2-4.7 5h-6.9l-7.4-4.7L77.2 194l9.6-4 9.8-.2"/><path fill="#636823" d="M102.2 235.5l-.4-4.6-2.9-27.1 4-43.8h-3.7l-4.3 42.4 2.5 31.2.2 2.4"/></g></svg>