<svg focusable="false" version="1.1" xmlns="http://www.w3.org/2000/svg" xmlns:xlink="http://www.w3.org/1999/xlink" x="0px" y="0px" width="200px"
	 height="303.7px" viewBox="0 0 200 303.7" enable-background="new 0 0 200 303.7" xml:space="preserve">
	<rect fill="#F78F1C" width="200" height="303"/>
	<linearGradient id="SVGID_1_" gradientUnits="userSpaceOnUse" x1="100" y1="303" x2="100" y2="-9.094947e-13">
		<stop  offset="0" style="stop-color:#F78F1C"/>
		<stop  offset="1" style="stop-color:#F9B169"/>
	</linearGradient>
	<path fill="url(#SVGID_1_)" d="M0,0l122.8,0.5C137.3,8.6,147,24,147,41.8C147,67.8,125.8,89,99.8,89c-0.5,0-0.9,0-1.4,0
		c-1.9,24.4-22.2,43.5-47.1,43.5c-18.2,0-33.9-10.3-41.8-25.3c-3,0.9-6.2,1.4-9.4,1.7V303h200V0H0z"/>
	<path fill="#FFD4AE" d="M3.2,30.9c0,23.9,19.3,43.2,43.2,43.2s43.2-19.3,43.2-43.2c0-12.1-5-23.1-13.1-30.9H16.3
		C8.3,7.8,3.2,18.8,3.2,30.9z"/>
</svg>
