<svg xmlns="http://www.w3.org/2000/svg" width="200" height="302"><path fill="#dd4939" d="M0 0h200v302H0z"/><path fill="#ffdf32" d="m128 279.3 22.35 22.7H128v-22.7z"/><path fill="#f4f4f3" d="M24.56 279.3H128V302H24.56z"/><path fill="#81d2cb" d="M127.03 279.3 180 228.16v51.14h-52.97z"/><path fill="#4faadf" d="M128 279.3V228h51.97L128 279.3z"/><path fill="#ffdf32" d="M179.37 228.47v50.83H200v-31.62l-18.4-19.21h-2.23z"/><path fill="#81d2cb" d="m0 95.95 21.82-21.81H25V126H0V95.95z"/><path fill="#f4f4f3" d="M25 74.14h2.05L77.5 126H25V74.14z"/><path fill="#81d2cb" d="M25 74.32h154.37V21H76.21L25 74.32z"/><path fill="#252927" d="M0 0h25v21H0z"/><path fill="#ffdf32" d="M76.37 21 55 0H25v21h51.37zM179.37 21 158 0h-30v21h51.37z"/><path fill="#81d2cb" d="M200 0h-42l21.37 21H200V0Z"/><path fill="#f4f4f3" d="M76.69 0v74.32H128L179.37 21H128V0H76.69z"/><path fill="#4faadf" d="M25 21v53.32l51.21-53.48L25 21z"/><path fill="#ffdf32" d="m0 47.58 25 26.74H0V47.58z"/><path fill="#4faadf" d="M179.37 21H200v21.69L179.37 21z"/><path fill="#ffdf32" d="M179.37 21v53.32H200V42.69L179.37 21z"/><path fill="#252927" d="M179.37 74.32H200V126h-20.63z"/><path fill="#4faadf" d="M0 74.32h22L0 95.95V74.32zM76.69 74.32H128L77.5 126l-.81-51.68z"/><path fill="#81d2cb" d="M77.5 126 128 74.32V126H77.5z"/><path fill="#ffdf32" d="M128 74.32V126h51.37L128 74.32z"/><path fill="#f4f4f3" d="m0 152.05 25 24H0v-24z"/><path fill="#252927" d="M25 126h52.5v50H128l-51.47 52.47-51.97-51.98L25 126z"/><path fill="#ffdf32" d="M77.5 126v50H128l-50.5-50zM179.37 126v50H200v-30.02L179.37 126z"/><path fill="#4faadf" d="M128 126h48l-48 50v-50z"/><path fill="#81d2cb" d="M176 126h3.37v50H128l48-50z"/><path fill="#ffdf32" d="M128 176v52.47h51.37L128 176z"/><path fill="#ffdf32" d="M128 176v52.47h51.37L128 176zM24.5 176v52.47h52.03L24.5 176z"/><path fill="#4faadf" d="M0 176.05h24.5L0 202.23v-26.18zM179.37 176H200v33l-20.63 19.47V176z"/><path fill="#252927" d="M179.37 228.47 200 209v19.47h-20.63z"/><path fill="#81d2cb" d="m0 202.23 24.5-26.18v52.42H0v-26.24zM76.53 228.47 128 176v52.47H76.53z"/><path fill="#ffdf32" d="m0 255.21 24.56 24.09H0v-24.09zM76.53 279.3v-50.83L128 279.3H76.53z"/><path fill="#4faadf" d="M24.56 279.3v-50.83h51.97L24.56 279.3z"/><path fill="#81d2cb" d="m24.56 279.3 51.97-50.83v50.83H24.56z"/><path fill="#4faadf" d="M76.53 279.3H128v1.7l-21.16 21.16H76.53V279.3zM179.37 279.3H200V302h-20.63z"/><path fill="#252927" d="M0 279.3h24.56V302H0z"/></svg>