<svg focusable="false" xmlns="http://www.w3.org/2000/svg" width="200" height="302"><path fill="#6DCCC4" d="M0 0h200v302H0z"/><path fill="#9B9DA3" d="M33.2 61.8H0V193s5.4 0 6.8 2.7c1.8 3.3 1.3 7.7 2.2 10.2 1 2.7 4.4 6 9 7.1 6.4 1.5 16.2-2.3 22.2-5s15.3-7.7 21-4.7c5.7 3 8.3 16.3 7.7 25.3-.6 8.2-1.5 17.6-6 29.6 7.4 3.6 13.5 7.9 18.5 12.5 2.3 2.2 4.6 4.7 6.8 7.4 4.9-.4 9-.9 11.7-1.5 6.7-1.4 37-72.9 37-72.9L33.2 61.8z"/><path fill="#F86754" d="M22.1 18.1C10.7 22 0 33 0 33v42.3s12 4 16.3 9.7 6 11.7 6.3 17c.3 5.3-.5 19.5 5.7 25.7 6 6 15 6 24 6.3s16.4 1.8 21.7 6.7c4 3.7 6.9 11.3 7.3 18.3.7 10 4 28.7 11 34.3 7 5.7 22.7 14.7 24 31.3.7 8.3-5.3 14.7-8.7 19.7-3.3 5-9.3 9.7-10.3 17.7s2.7 14.7 2.7 14.7 32.3-1 55-32.3 27.7-68.2 26.7-88.7c-.7-13.7-3.7-21-7-29.3L22.1 18.1z"/><path fill="#EB4513" d="M32.5 31C43 48.5 57 80.5 64 88.5s20 22.5 34.5 26 31 4 42-2 28.1-25.6 31-58.5c.4-5.1.8-9.9 1-14.5-8.1-4.6-16.3-8-20.5-10.5-8.5-5-14.5-18.5-35-22.5s-28 7-38 9.5c-12.1 3-15-1-26.5-1.5-14.7-.6-26.8 2.4-30.4 3.6 3.9 3.8 7.6 8.2 10.4 12.9z"/><path fill="#7CEEFB" d="M52.5 14.5c14 1 14 4.5 23.5 3 10-1.6 20.5-15 41-11S143.5 24 152 29c4.2 2.5 12.5 5.9 20.5 10.5 1-19.1.5-33.3.2-39.5H0v1.5s11.7 6.4 22.1 16.6c3.6-1.2 15.7-4.6 30.4-3.6z"/><path fill="#4BB1E1" d="M200 127V19.1c-6.3-1.5-12.5-2.2-18.2-2.1-9.3.2-20 4.9-29.5 12.2 0 0 1.8.9 4.4 2.3 4.4 2.2 19.9 9.7 26.6 15.5 5.9 5.1 10 13 11.7 22.3 1.7 9.3-2.3 18.3-4 25.7s-1.3 10.7.7 19.7c1.1 4.9 4.2 9.5 6.8 12.5"/><path fill="#FD4C60" d="M188.8 128c3.2 0 6.4-.3 9.7-.8-2.6-3.1-5.7-7.6-6.8-12.5-2-9-2.3-12.3-.7-19.7s5.7-16.3 4-25.7c-1.7-9.3-5.8-17.2-11.7-22.3-6.7-5.8-22.2-13.4-26.6-15.5-2.7-1.4-4.4-2.3-4.4-2.3C142 37 133 47.9 128.5 59.4c0 .1-.1.3-.1.4-.2.5-.3.9-.5 1.4-.1.1-.1.3-.2.4-.2.5-.3.9-.5 1.4 0 .1-.1.2-.1.3-.3 1.2-.6 2.3-.9 3.5 0 .2-.1.3-.1.5-.1.4-.2.8-.2 1.2 0 .2-.1.4-.1.6-.1.4-.1.8-.2 1.2 0 .2 0 .3-.1.5-.1.6-.1 1.1-.1 1.7-.1.9-.1 1.8-.1 2.7v1c0 .6 0 1.1.1 1.7 0 .4.1.8.2 1.3s.1.9.2 1.4c.1.5.2 1 .3 1.4.1.4.1.8.2 1.2.1.5.3 1 .4 1.5.1.3.2.7.3 1 .2.6.3 1.1.5 1.7l.3.9c.2.6.4 1.2.7 1.7.1.2.2.5.3.7.3.6.6 1.2.8 1.8l.3.6c.3.6.7 1.3 1 1.9.1.2.2.3.3.5.4.7.8 1.3 1.2 2 .1.1.1.2.2.4.4.7.9 1.3 1.4 2 .1.1.1.2.2.3.5.7 1 1.4 1.5 2 0 .1.1.1.1.2.5.7 1.1 1.4 1.7 2l.1.1c.6.7 1.2 1.4 1.8 2 .6.7 1.3 1.3 2 2 12.4 11.9 30.1 19.5 47.4 19.5z"/><path fill="#B9B7B8" d="M61.7 261.7c.5-1.2.9-2.3 1.3-3.4-6-2.9-12.8-5.3-20.8-7-14.5-3.1-42.2 1-42.2 1v29s36.8-.7 52-1.1c3.8-6.7 7.6-13.5 9.7-18.5z"/><path fill="#419EE3" d="M0 281.2V302h38.3s7-10.6 13.6-21.9c-15.1.5-51.9 1.1-51.9 1.1z"/><path fill="#59D8B3" d="M81.5 270.8c-5-4.6-11.1-8.9-18.5-12.5-.4 1.1-.9 2.3-1.3 3.4-2.1 5-5.8 11.9-9.7 18.5 1.6 0 3-.1 4-.1 8.3-.3 21.8-.9 32.3-1.8-2.2-2.8-4.5-5.4-6.8-7.5z"/><path fill="#74C2EA" d="M56 280c-1.1 0-2.4.1-4 .1-6.6 11.3-13.7 21.9-13.7 21.9h62.9c-.9-5.5-6.2-15.2-13-23.8-10.4.9-23.9 1.5-32.2 1.8z"/><path fill="#F86754" d="M100 276.7c-2.7.6-6.9 1.1-11.7 1.5 6.8 8.6 12 18.3 13 23.8H135s-13.3-4.7-21.3-10.3c-8.8-6.2-13.7-15-13.7-15z"/></svg>