<svg focusable="false" xmlns="http://www.w3.org/2000/svg" width="200" height="303"><path fill="#FFF" d="M0 0h200v303H0z"/><path fill="#579524" d="M74 220.5h40l2-13.5 8 2 4-.5 3-2.5 2.1-3.1-1.1-3.9 2-1v-3l1-1v-2l-2-3 6.5-2.5V183l-6.5-10 2-3-2-15-5-9-6.3-4.4-6.7-1.6-11-1-24 44 6 7-5 4 8 4-1.2 7-5.4 8.3z"/><path fill="#F97C00" d="M73 148l-4 2v-2h-2v-1l-5-2 6-1v-1l-4-4h3l-1-3 1-4 4 4 2 4 2-9 2 3 1-3 2-2 1 4v2h2l-2 4-2 2 4-2v2l2-2 1.2 1 2.8-1-3 7-5 1 3 2-.2 3.5L81 151l-1 1-2-2-1 2z"/><path fill="#7EA509" d="M120 158l7-5 2-4-7 2 2-6h-3l1-3-2-3-4 5v4l-3-7-1 2-5-2v4l-1 4 4 4-7 1 7 6 3.3 1"/><path fill="#FFE40B" d="M82 179l-2 4-5 4 2-5v-3l-6 3v-3l-5-2 5-4h4l-4-2-3-1 2-1-2-2v-3h3l2 2v-4l3 3 3 3v-4l2-5 4 4 1.2 8.5-2.4 8.2z"/><path fill="#F48A05" d="M91 170l-2 2.3-1-1.3-5 2.3 5-6.3-7 1 1-3-3-1-1-3 3.5-.7 2 .7.5-2 4 2-6-6h3l-1.2-2.5.2-3.5 3 3 1 1 1-4 3 5.5 1.2 3.2L95 153l2.8-3.3 2.2 7.3-3 11z"/><path fill="#7EA509" d="M92 171l-4-2 2-2-4-5 5 1 5 3-1-4-3-4 3 1v-3l2-3 3 4 2-1v6l4-1 3 8-7.3 5.7-4.7.3z"/><path fill="#D0CC06" d="M92 189l1-3-6 4v-3h-6l4-5 4-1-7-2 1-1-3-2 2-1-2-2h5v-3l7 5-1-5v-4l4 2 1 2 2-1 1 6h-2v3l2 1 3 5-7 2z"/><path fill="#D0CC06" d="M107 153l3 4 2-2v9l2-5 5-3v6l3 1-6 5 7 1-8 5-5-3-2 5-9-1 5-3-6-3 3-1-3-2-1-4 5.5.8 3.5 2.2-3-8 3 1z"/><path fill="#FFE40B" d="M94 154l-6 1-6-5 7-1-5-4 3-1-1-6 3 2 2 2 1-1 2 4-1-5 1-3 1 2 4-5 1 1v5l3-1 .5 2-4.2 6 4.7-3v2l3-1 1 4-3 1 2.7 1.5-6.7 1.5 4.3 3.5L98 159l-2.3.3z"/><path fill="#F97C00" d="M73.4 148.3L71 158.5h.5l1.9-10z"/><path fill="#FA6D0A" d="M56 169l-1 1-2 4-1-2-2 3-.2-1-1.8 1h-1l-3 1 3-3-.5-.5L49 170h-7l1-2-2-1v-1l-3-2h4v-1l2.8.8v-1L49 164l-2-2-2-1-2-3h3l-2-3 2 1-1-4 2.5 2 .5-1 1.5 2.8 1.5-3 1.1 2.7.1 1.5h.8l1 4 1.3-2.1.7-2.9 1 1v-2l1.3-1.3.7-1.7.8 4h.7l-.5 3 2.8-.2-2.4 3.4-.4 1.8 3-1 3 .8-2.4 1.5.4.7-2 1 .8.8-2.8.6 1 1.6h-3z"/><path fill="#FA6D0A" d="M56 169l4.5 9.5-.5.7-4.2-10z"/><path fill="#E21910" d="M47 143l1-1.1 4.8-.8-1-1 3-1-.8-1.1 2-1-.5-.5L58 134l-5 1-2.2 1 .7-2.2-.3-.8 1.8-3.2-2.6.3-.2-2.9-.8.7-.2-1.9-.7-1.8-1.5 3.7-.8-.9-.2 3-1-.5v4.5l-1-1-.5-3-2.3-3.5-.7 2.5-2-2-.5 1-1-1-2-.5 1 1.5h-.8l1.3 1.2h-1L37 132h-3.5l6.5 6h-5l1 1h-2l-3.8.2L34 141l-1 1 3 1-1 2 5-1 1 1-2 2h1l-1.8 3.2 2.9-1.7.4.7L43 147l.5 1.5 1.7-2.5 1 1.2.8-2.2z"/><path fill="#E21910" d="M47.4 142.4l4.1 5.1 1.7 3 .6-.5-2.8-4-3.3-3.9z"/></svg>