<svg xmlns="http://www.w3.org/2000/svg" xmlns:xlink="http://www.w3.org/1999/xlink" width="200" height="304"><image xlink:href="../Dev/highlights/assets/images/covers/tomorrow-and-tomorrow-and-tomorrow.jpg" transform="scale(.5)"/><path fill="#fdf2de" d="M0 0h200v304H0z"/><path fill="#204263" d="M0 0h163l-3 78-15 5-9 10-8 18-2 34 11 36 15 22 8 18 20 21 20 16.2V304H0V0z"/><g fill="#fff"><path d="M0 0h185.96L200 17v5.09L192 17l-2 13 10 4.59V86l-4 1-3 2-1 6 4 4-1.97 5.29L190 109l-1-3 3-4-4-5h-7l-3-7h-9l-1-2 6-2-1-7-5-1-4-2-4 2-3 5-7 4v-3l4-5-2-4-4 2-7-1v-3l4 2 8-5-2-6-6-2-4-13-10-10-11-12-4-13-11-5-11 5-14.03 12.01L70 26l-8-9H49l-7 21-5 11.48L32 54l-1-3 3-3-1-3-6.53-3.66L21 45v6l-5 4-3-1 4-3-2-6-5-1-4 2-1 7v10l4.5 4.5L13 75l5 3 6 1 2 1h4l5-3 9 1 1 2h-5l-1 2 3 2 4-1 4-1 3-1 4 1 4 3 1 4h-2l-2-4-4-1-5 2-2 4v7l3 8 8 8 10 3 3 4 7 2 4-1 3-4h5l4 3h4l3-2 3 1h7l3 4v3h-2v-3l-4-2-6 2-5 3-6 6-4 14 4 3 1 8h-2l-1-5-3-3h-3l-3-1-3 1v7l-2 3-1-1v-4l-2-5h-4l-2.55 2.36L60 154v-2l3-3v-7l-4-2h-3l-3 3-5 1v-2l4-1v-6l-5-3-3-3h-3l-2 3 1 1-2 5-4 3-1-2 2-1v-4h-7l-1 4-2 2-1 3-5 1v-3h3l1-6-4.68-1.44L15 135l-1-2-4-2-4 2v12l3 3 6 1 3 3 5 1 6-5 4-1 6.2 5-4.2 17 5 10v7l-1 4h-1v-6l-2-4-5-2-6 3 1 6 5 5v9l-3 5v-3l1-1v-7l-6-5h-5l-7 9H8l3-3 1-3 2-4-4-6H7l-2 3-4 1v-1l4-3 1-4-2-2-4 2.5V0zM0 253.25 8 245l7-7 9 3 15-8 9-14 7-7 12.01-6L74 191l8.5-8.5h6.81L96 189l13 5 15 2 3 5 15 19 15 13 14 8 13 1 4 2 3 5 9 6.77V304H0v-50.75z"/></g></svg>