<svg xmlns="http://www.w3.org/2000/svg" width="200" height="302"><path fill="#f3efde" d="M0 0h200v302H0z"/><path fill="#fb5c00" d="M172 34c0 .59-.06 1.26-.2 1.99-3.89-3.56-8.33-6.92-13.27-10.05C140.39 14.45 116.85 7.2 92.25 5.53c-34.6-2.36-60.79 9.27-73.76 20.94-7.57 6.81-11.71 14.29-11.98 21.62-.32 8.73 3.11 17.25 9.68 24.01C29.31 85.6 54.5 92.3 91.09 92c37.46-.3 62.23-8.42 78.06-19.02 2.23 19.99-.11 30.56-17.19 47.64-14.09-13.89-32.93-22.94-50.76-24.09-24.26-1.57-55.5 1.64-70.47 15.31-5.86 5.35-9.05 12.05-9.24 19.38-.21 8.05 2.58 15.21 8.05 20.7 12.77 12.82 37.59 14.06 60.18 13.58 14.06-.3 37.68-2.69 57.92-13.88 2.38 5.14 3.41 10.18 2.92 14.67-.52 4.66-2.31 14.24-8.43 23.37-11.04-11.11-27.84-18.66-46.79-20.12-20.09-1.54-39.42 3.85-50.47 14.08C39.07 189 36 195.35 36 202.01c0 7.38 2.81 13.97 8.14 19.07 9.81 9.39 27.9 13.38 55.3 12.19 13.23-.57 25.26-3.63 35.61-8.97 2.06 9.8 1.97 13.53.58 22.54-.05.35-.55 3.31-2.51 7.15-.29-.35-.58-.69-.88-1.03-9.29-10.61-22.34-16.45-36.74-16.45-33.15 0-42 17.6-42 28 0 3.32 0 13.42 8.27 21.54 6.98 6.86 17.89 10.21 32.42 9.96 9.44-.17 17.44-1.64 24.16-3.81-2.12 3.91-4.85 7.41-6.99 9.81h26.7c2.51-4.77 4.57-10.22 5.35-16.05.39-2.92.38-5.93 0-8.96 10.48-10.73 13.25-22.16 13.96-26.82 2.3-14.92 1.49-21.03-2.66-38.69-.14-.6-.3-1.21-.47-1.8 10.04-10.98 16.46-25.39 18.19-40.96 1.1-9.93-1.33-20.45-6.94-30.54 22.9-22.21 28.87-38.65 25.44-68.43-.55-4.78-1.94-9.5-4.11-14.09 5.16-7.84 7.19-15.58 7.19-21.65 0-10.66-5.8-22.08-17.22-34h-33.87c11.92 8.05 29.09 24.14 29.09 34ZM90.91 70c-39.78.32-54.01-8.15-58.94-13.23-2.41-2.48-3.57-5.12-3.48-7.77.76-4.88 19.32-21.79 54.49-21.79 2.51 0 5.1.09 7.78.27 30.11 2.05 54.58 13.23 67.78 26.22-11.65 8.42-32.35 16.02-67.62 16.31Zm-1.64 73.5c-24.08.52-38.92-1.88-44.12-7.1-.89-.9-1.71-2.08-1.65-4.62.02-.6.05-1.85 2.09-3.71 6.66-6.08 24.39-9.92 44.24-9.92 3.28 0 6.61.1 9.97.32 11.51.74 24.17 6.58 34.17 15.42-12 5.85-27.49 9.24-44.69 9.61Zm9.22 67.77c-28.28 1.23-36.79-3.86-39.13-6.1-.97-.92-1.34-1.77-1.35-3.09.86-3.42 14.29-12.26 35.66-10.62 14.29 1.1 25.33 6.39 32.17 12.95-6.98 3.76-15.91 6.36-27.34 6.86ZM93.81 274c-11.45.2-15.43-2.49-16.62-3.65-1.2-1.18-1.67-2.79-1.69-5.73.32-1.37 4.47-6.12 20-6.12 10.22 0 16.62 4.86 20.19 8.94.5.57.96 1.14 1.39 1.72-5.8 2.75-13.37 4.66-23.27 4.84Z"/></svg>