<svg focusable="false" version="1.1" xmlns="http://www.w3.org/2000/svg" x="0" y="0" width="200" height="302" xml:space="preserve"><style>.st7{fill:#42361b}.st9{fill:#474932}.st10{fill:none;stroke:#474932;stroke-miterlimit:10}.st12{fill:#715d23}</style><path fill="#bcbb97" d="M0 0h200v302H0z"/><path d="M200 129l-21-3-2-22 8-9-3-5-5-2-8 1-4-10 11-17-1-12-20 13-5 3-8-4 3-10 5-6 6-4-1-6 2-5 1-3-11 7v-6l-4-7 7-7-1.3-10.1L146 0h54v129z" fill="#b5b566"/><path d="M0 61V23l10-12L23 0h78l2 13 10 11 17.8 8.6L139 64l5 7 4.2 4 7.8-6 19 72-4.6 13.8L141 153H0s-.4-92 0-92z" fill="#797542"/><path d="M94.5 153l-6-3-11.3 3h-6l-8.7-13-15-3-11 4-7-6-13-8L0 129.6V184h200v-31H94.5z" fill="#593f29"/><path d="M0 150h14.7l22.6 7.9 11.3 15.8L52 185H0v-35z" fill="#5c452a"/><path d="M0 184h200v118H0V184z" fill="#a85e1e"/><path d="M62 254l14-9 16-1 10-11 5-2 29-8 4-2v-37H0v118h48v-14l14-34z" fill="#793f11"/><path class="st7" d="M99 203l10-3 12 3 16 13.3 3 4.7-4 2-14 4-9.7 4.1L111 215l-13-2 1-10z"/><path d="M200 129l-16-12-6 10 4 15-7-1-4 7-.6 10.1-2.4 9.9-6 2v-9l-3.1-3.8-6.9 5.8-6 1-5.4-11H138l-2 6-6 18-9 1-2 12 2 13 16 14 3 4 12-5 11-8 8-9 7-7 10.9-7.7 11.1-.3v-55z" fill="#b59c2c"/><path class="st9" d="M189 0h4l7 81v51l-4-23-7-109z"/><path class="st10" d="M181 119l5-9h2l4-4 4.8-3.3m.9.6L186.4 120m-7.9-14.5l8-8 9.3-11.9m-12.3 20.9l6-8 7-6.6m-29.3-12.5l7.3-5.9 4-6 8-6 8-7"/><path class="st10" d="M179.5 47.5l6.2 9.9 8.8 6.1m-21 21l8-6 6-3 8-7"/><path class="st10" d="M173.2 81.2l8.1-7 8.2-5.7 6-6m-11 19l11-10m-12 14l3-2 9-9m-53-14l5.4-4.6 3.6-.4 14-10 27-7"/><path class="st10" d="M160.5 53.5l23-23h4l6 3m-10-3h-5l-5-4m21 5l5.5.3m-8.7-7.2l-4.8-2.1h-4l-37 1m26 11l7-4m-21.9 6l4.2-2.4 2.7-.6"/><path class="st10" d="M161.5 37.5l3-6 11-8.5 2-3.5 4-1 2-3 8-4m2 5l3-3 3.5-2.4m-46.5-.6l9-1 9-2 9-1 3 3 6.8 2.4m-23.8 1.6l9-6.1m5-.9l10-1 7-1 2.5-3m-23.4 5.2l-5.1-1.2-2-2-3-1m5 5l-4-2-6 1"/><path class="st7" d="M199.7 245.6L193 250l-6 7-1 4v7l1 4 3-1h3l3 2 3.7-4.8v-22.6zM137 236l1-6 5-4 4-1-4 5-6 6zm30 9v-9l6-7 5-2-4 4-2 4-1 5-4 5z"/><path class="st9" d="M22.8 131.3L27 81l8-81h4l-6 71-5.9 62.9-4.3-2.6zM65 0v19l8.3 134.8 3.7-.8L67 20 65 0zm24 0l-2 45-3.9 108.2L95 153 90 0h-1z"/><path class="st9" d="M93 123l9-6 17-22 2-15 7-9 3-7-2.5 8.5L122 81l-2 16-17 23-10 8v-5z"/><path class="st7" d="M68 199l3-5 9-1 9 6 6 9-7 2-3 3-17-14z"/><path d="M48 302h130l-32-24-12-13-20-14-4-6 7-10 19-12-29 8-5 2-10 11-16 1-14 9-14 34v14z" fill="#9ea060"/><path class="st12" d="M87 269.6l10 4.4 8 4-6.6 1.6-3.4-.6-6 3-2 1-3 4-3 2v5l-4.1 8.4-4.1-.3 1.2-5 4-3-2-4 2.4-7.2-.4-3.4 1-6.4 8-3.5z"/><path class="st7" d="M118.1 302l-2.1-7-4-5-1-8-6-4h-6l-6 10-2 7-1.6 7s28.7-.4 28.7 0zM48 302v-14l6-18.5 4.8-7.4 13.2.9 2 2 3-1 4 2 5-2 4 1 3 2 1 4h-6l-9 3 1 7-2 3-2 6-6 2-3 4-1.1 6H48zm36-50v6l2 2h2l-2 4h6l8-1h11l3 2 10-2 7 3 3-1v-12l-5-2-4 3-8 1-3 4-2.7 4-2.3-4 2-2-4-3-5-3-8-3h-6l-4 4z"/><path class="st7" d="M91 247l2.5-5.8 5.5.8 4-1v-5l4-1 3 2 2-4 3-1 3.9 1.6L110 245l3.3 3.6-15.4 1.1-7.2-1.3.3-1.4z"/><path class="st12" d="M136 286l14-2 3 2 3.1-.6 12.7 9.4-1.3 6.9-22.5.3h-4.6l1.6-7-5 2-3-3 3-4-1-4z"/><path d="M123 277l3 4-2 2 4 4 3-3 3 1 3-6-7-4-7 2zm-1-10l3 3v3l8 1 2-2-1-4-3-2.5-7-.5-2 2z" fill="#544422"/><path class="st10" d="M7 115l4-5 5-6 11-9m-14 25l7-10 7-8m12 27l-7-6-4-7m.5-8.5l5 4h2l3 4 3 4"/><path class="st10" d="M29.5 65.5l-15 9-6 8-5 13v10l10 17"/><path class="st10" d="M26.9 91.2l-4.4 4.3-8 6m17-49l-9 10-5 8-2 9 3 8 2 6m12.4-24.7l2.6 5.7 5 10 13 14 11 7m-34-26l5 9 2 7 7 8"/><path class="st10" d="M50.5 102.5l-8-11-8-4.5M34 51.6l3.5 3.9 8 11 10 11m2 3l-10-4-7-1-8-11m8 11l4 7 2.1 8.4M4.5 74.5l5-13 6-5 5-5h5l7-6m27 21l-6-7-5-5-13.6-5.7M-.5 30.5l9-7 3-3 3-1 1-2 9-5 11-1-7 5-5 3-5 8-6 2-5 5-7 13"/><path class="st10" d="M3.5 35.5l2-5 2-2 1-5m25 14l-3-4h-11l-7 6v5l-5 3-7 9"/><path class="st10" d="M32.5 35.5l-12 5-5 5-1 4-.9 8.8m22.3-20.8l4.6 1 5 3 11 12M37.2 18.3l5.3 6.2 4 2 5 6 5 6 6 4M36 30.5l3.5 3 2-1 6 5 6 4M39 2.3l4.5 2.2 1 1 5 1 12 11m29.4 29.8L98 44h3l14-4h11"/><path class="st10" d="M90.7 41.4l16.8 8.1 4 4M90.9 36.4l4.6-3.9 4 1 9.2 7.5 9.8 4.5M90.3 28.2l4.2 2.3 4 1h6l16 4h6m-38.2 2h-7.8l-4 3-3 4M88.1 36l-2.6-2.5-12-7m15 24h-5l-6 2-6 4m19-6l3 2 8 3 12 7 9 8 8 7 6 2M92 61.8l8.5 1.7 7 2 11 8h2m-28.3-6.9l9.3.9 7 4 4 5 6 5m-26.3-9.9l13.3 8.9 15.8 7.6 7.2 3.4 4 1 3 4m-48-37h-5l-5 2-4 4m13.1 5.7l-6.1 7.3-2 7-3 6"/><path class="st10" d="M87.5 76.5l-5.1.1-4.9 3.9-2 3-2.6 4.8m14.6-3.8h-5l-4 3.2-1.3 3.5M93 76l9 6 6 3 7 8 2 3 4.1-.9 6.9 4.9 5 4 4 6 5 6m5.5-2.5l-14-9m-41-26l4 5 5 5 4 4m-12 30l6 4 5 7 6 5 6 4m-23-40l7 7 3.4 4.9 2.8 3 3.7 1.1 9 5 12 8m-37.9-14l7 3 10 3 7 4m-26-32l6 3 5 3 3 4 3.4 4.3 4.6 1.7 6 4 9 10m-36-27l7 5 6.6 7.8 9.4 5.2 4 3m-5.3-16.8l9.3 8.8 12 8 5 1 10 3"/></svg>