<svg focusable="false" xmlns="http://www.w3.org/2000/svg" width="200" height="302"><path fill="#CCCEB6" d="M0 0h200v302H0z"/><path fill="#797542" d="M0 61h6l2-17-8 4v-7l5-6-5-2V23l5 1 11-8-6-5L23 0h44l1 25 7-10 10 4-1-11-8-4-1-4h26l-8 7v5l12 1 8 11-19-3-3 9 7 1 6-4 24 10-11 4 5 8-19-12-9 3v3l9-1 36 22-9 8 1 6 6 6 7-13 4.21 4 7.79-6 19 72-4.62 13.81L141 153H0s-.38-92 0-92z"/><path fill="#593F29" d="M94.52 153l-6-3-11.32 3h-5.99l-8.69-13-15-3-11 4-7-6-13-8L0 129.59V184h200v-31z"/><path fill="#5C452A" d="M0 150h14.68l22.58 7.9 11.29 15.81L51.94 185H0z"/><path fill="#A85E1E" d="M0 184h200v118H0z"/><path fill="#793F11" d="M62 254l14-9 16-1 10-11 5-2 29-8 4-2v-37H0v118h48v-14z"/><path fill="#42361B" d="M99 203l10-3 12 3 15.98 13.28L140 221l-4 2-14 4-9.67 4.06L111 215l-13-2z"/><path fill="#B59C2C" d="M200 129l-16-12-6 10 4 15-7-1-4 7-.62 10.14L168 168l-6 2v-9l-3.05-3.81L152 163l-6 1-5.41-11H138l-2 6-6 18-9 1-2 12 2 13 16 14 3 4 12-5 11-8 8-9 7-7 10.95-7.67L200 184z"/><path fill="#B5B566" d="M200 129l-6-53-10 4h-4l-10 4 15-12h-3l-13 8-4-1 13-15 3-10-2-6 8 10 5-3-1-6-6-8-17 7-13 15 2.05-8.97L145 61l4-8 6-7h3l14-7-4-9-5 4-8 2 6-7-1-5-9 7v-6l-4-3 26-2 5-5-4-2-8 5-4-8-2 6-8-1 .66-10.08L150 0h50z"/><path fill="#474932" d="M189 0h4l7 81v51l-4-23z"/><path fill="none" stroke="#474932" stroke-miterlimit="10" d="M181 119l5-9h2l4-4 4.8-3.34M197.65 103.26l-11.27 16.66M178.5 105.5l8-8 9.32-11.95M183.5 106.5l6-8 6.98-6.59M167.16 79.36l7.34-5.86 4-6 8-6 8-7"/><path fill="none" stroke="#474932" stroke-miterlimit="10" d="M179.5 47.5l6.23 9.87 8.77 6.13M173.5 84.5l8-6 6-3 8-7"/><path fill="none" stroke="#474932" stroke-miterlimit="10" d="M173.18 81.16l8.15-7.01 8.17-5.65 6-6M184.5 81.5l11-10M183.5 85.5l3-2 9-9M142.5 60.5l5.43-4.59 3.57-.41 14-10 27-7"/><path fill="none" stroke="#474932" stroke-miterlimit="10" d="M160.5 53.5l23-23h4l6 3M183.5 30.5h-5l-5-4M194.5 31.5l5.5.3M191.26 24.63l-4.76-2.13h-4l-37 1M171.5 34.5l7-4M156.57 36.52l4.23-2.44 2.7-.58"/><path fill="none" stroke="#474932" stroke-miterlimit="10" d="M161.5 37.5l3-6 10.96-8.5 2.04-3.5 4-1 2-3 8-4M193.5 16.5l3-3 3.5-2.39M153.5 10.5l9-1 9-2 9-1 3 3 6.79 2.42M166.5 13.5l8.96-6.14M180.5 6.5l10-1 7-1 2.5-3M176.6 6.71l-5.1-1.21-2-2-3-1M171.5 7.5l-4-2-6 1"/><path fill="#42361B" d="M199.73 245.57L193 250l-6 7-1 4v7l1 4 3-1h3l3 2 3.73-4.84v-22.59zM137 236l1-6 5-4 4-1-4 5zM167 245v-9l6-7 5-2-4 4-2 4-1 5z"/><path fill="#474932" d="M22.83 131.33L27 81l8-81h4l-6 71-5.93 62.93zM65 0v19l8.33 134.81L77 153 67 20zM89 0l-2 45-3.9 108.16L95 153 90 0z"/><path fill="#474932" d="M93 123l9-6 17-22 2-15 7-9 3-7-2.5 8.5L122 81l-2 16-17 23-10 8z"/><path fill="#42361B" d="M68 199l3-5 9-1 9 6 6 9-7 2-3 3z"/><path fill="#9EA060" d="M48 302h130l-32-24-12-13-20-14-4-6 7-10 19-12-29 8-5 2-10 11-16 1-14 9-14 34z"/><path fill="#715D23" d="M87.01 269.58L97 274l8 4-6.59 1.56L95 279l-6 3-2 1-3 4-3 2v5l-4.09 8.37-4.07-.33L74 297l4-3-2-4 2.38-7.18-.37-3.42.99-6.4z"/><path fill="#42361B" d="M118.07 302.04L116 295l-4-5-1-8-6-4h-6l-6 10-2 7-1.6 7.04s28.67-.43 28.67 0zM48 302.04V288l5.95-18.54 4.83-7.38L72 263l2 2 3-1 4 2 5-2 4 1 3 2 1 4h-6l-9 3 1 7-2 3-2 6-6 2-3 4-1.06 6.04zM84 252v6l2 2h2l-2 4h6l8-1h11l3 2 10-2 7 3 3-1v-12l-5-2-4 3-8 1-3 4-2.72 4-2.28-4 2-2-4-3-5-3-8-3h-6z"/><path fill="#42361B" d="M91 247l2.53-5.77L99 242l4-1v-5l4-1 3 2 2-4 3-1 3.94 1.63L110 245l3.29 3.61-15.42 1.09-7.17-1.3z"/><path fill="#715D23" d="M136 286l14-2 3 2 3.08-.57 12.7 9.44-1.3 6.85-22.48.32h-4.56L142 295l-5 2-3-3 3-4z"/><path fill="#544422" d="M123 277l3 4-2 2 4 4 3-3 3 1 3-6-7-4zM122 267l3 3v3l8 1 2-2-1-4-3-2.5-7-.5z"/><path fill="none" stroke="#474932" stroke-miterlimit="10" d="M7 115l4-5 5-6 11-9M13 120l7-10 7-8M39 129l-7-6-4-7M28.5 107.5l5 4h2l3 4 3 4"/><path fill="none" stroke="#474932" stroke-miterlimit="10" d="M29.5 65.5l-15 9-6 8-5 13v10l10 17"/><path fill="none" stroke="#474932" stroke-miterlimit="10" d="M26.85 91.15L22.5 95.5l-8 6M31.5 52.5l-9 10-5 8-2 9 3 8 2 6M32.93 68.78l2.57 5.72 5 10 13 14 11 7M30.5 79.5l5 9 2 7 7 8"/><path fill="none" stroke="#474932" stroke-miterlimit="10" d="M50.5 102.5l-8-11-8.05-4.48M34.02 51.62l3.48 3.88 8 11 10 11M57.5 80.5l-10-4-7-1-8-11M40.5 75.5l4 7 2.11 8.43M4.5 74.5l5-13 6-5 5-5h5l7-6M59.5 66.5l-6-7-5-5-13.62-5.71M-.5 30.5l9-7 3-3 3-1 1-2 9-5 11-1-7 5-5 3-5 8-6 2-5 5-7 13"/><path fill="none" stroke="#474932" stroke-miterlimit="10" d="M3.5 35.5l2-5 2-2 1-5M33.5 37.5l-3-4h-11l-7 6v5l-5 3-7 9"/><path fill="none" stroke="#474932" stroke-miterlimit="10" d="M32.5 35.5l-12 5-5 5-1 4-.9 8.85M35.86 37.5l4.64 1 5 3 11 12M37.16 18.28l5.34 6.22 4 2 5 6 5 6 6 4M36.02 30.5l3.48 3 2-1 6 5 6 4M38.96 2.31L43.5 4.5l1 1 5 1 12 11M90.92 47.27L98 44h3l14-4h11"/><path fill="none" stroke="#474932" stroke-miterlimit="10" d="M90.7 41.41l16.8 8.09 4 4M90.92 36.41l4.58-3.91 4 1 9.23 7.47 9.77 4.53M90.27 28.16l4.23 2.34 4 1h6l16 4h6M88.31 37.5H80.5l-4 3-3 4M88.1 35.98l-2.6-2.48-12-7M88.5 50.5h-5l-6 2-6 4M90.5 50.5l3 2 8 3 12 7 9 8 8 7 6 2M92.01 61.83l8.49 1.67 7 2 11 8h2M92.22 66.6l9.28.9 7 4 4 5 6 5M92.22 71.6l13.28 8.9 15.83 7.61 7.17 3.39 4 1 3 4M87.5 59.5h-5l-5 2-4 4M86.58 71.16L80.5 78.5l-2 7-3 6"/><path fill="none" stroke="#474932" stroke-miterlimit="10" d="M87.5 76.5l-5.05.09-4.95 3.91-2 3-2.61 4.82M87.5 84.5h-5l-3.96 3.17-1.3 3.48M93 76l9 6 6 3 7 8 2 3 4.11-.94L128 100l5 4 4 6 5 6M147.5 113.5l-14-9M92.5 78.5l4 5 5 5 4 4M93.5 122.5l6 4 5 7 6 5 6 4M93.5 102.5l7 7 3.45 4.89 2.83 3.04 3.72 1.07 9 5 12 8M93.5 117.5l7 3 10 3 7 4M91.5 95.5l6 3 5 3 3 4 3.45 4.33 4.55 1.67 6 4 9 10M92.5 98.5l7 5 6.62 7.85 9.38 5.15 4 3M114.16 102.66l9.34 8.84 12 8 5 1 10 3"/></svg>