<svg focusable="false" xmlns="http://www.w3.org/2000/svg" width="200" height="301"><path fill="#F8BD17" d="M0 0h200v301H0z"/><path fill="#DB2E27" d="M150.9 279.3l-6.9-4.5 2-3h8.8v2.2l-2.3 1.5z"/><path fill="#BD1D28" d="M157.8 271.8h-5.3l-2.7-3.3-2.5-1.2-4.3-6.3 1-10.2 1-9.8.8 2.8.2 7 2.3 6.2 7.5 5 4.5 1.5v6.3z"/><path fill="#DB2E27" d="M154.8 253.3l3-1 3.5 3.6 1.2 3.4v2.7l-2.2 1.5v-3.7h-2.5l-4.3-3.9z"/><path fill="#BD1D28" d="M162 273l1.4 2.8 1.6.8 3.2-2.2 1.3 1.5 1.3-.4 1.3 3.1-.5-2.8 1.7-3.1 2-.2 2 .5-2-1.2-2.7.4-2.8-3.4.8-.4-.6-1.5-1.3-.9-2.6.2-2.3-2.4-1.8-.3-.9 1.5v1.7l-.8-.6v3.7l-1.1 1.6 1.1 1.4z"/><path fill="#DB2E27" d="M148.5 240l6.5-1.7 2.8-4.3-2.8.3-1.9-2.3-2.3 2-2.3-1-2.2 5.8-2.3 1.2 1.8 3.8z"/></svg>