<svg focusable="false" xmlns="http://www.w3.org/2000/svg" width="200" height="301" viewBox="0 0 200 301"><path fill="#C0F2ED" d="M0 0h200v301H0z"/><path fill="#A96848" d="M100 301H0v-12s12-9.3 26.3-9c4 .1 10.5-1.1 18.6-3.6 10.2-3.1 22-7.7 22-7.7V255h66v13.7s34.6 7.9 48 10.7c11.3 2.3 19 6.7 19 6.7v15c.1-.1-99.9-.1-99.9-.1z"/><path d="M28 301h23l-6.3-24.7s-4 1.5-9 2.3c-5.6.9-8.3 1.3-8.3 1.3L28 301z"/><linearGradient id="a" gradientUnits="userSpaceOnUse" x1="100" y1="288.551" x2="100" y2="85.56"><stop offset="0" stop-color="#B06B3D"/><stop offset=".377" stop-color="#CA895A"/><stop offset=".763" stop-color="#DEA171"/><stop offset="1" stop-color="#E6AA7A"/></linearGradient><path fill="url(#a)" d="M0 104.2s5.1-6.1 11.5-5.7c7 .5 10 3 17.5 1 9.1-2.4 16.7-9.8 30-7.8 19.9 3 21.3 16 39.9 15.4 22.9-.8 44.1-23.4 67.4-21.4 20.8 1.8 25 10 25.2 20.7.2 10 8.5 15.3 8.5 15.3V249s-5.3 7-14.2 11.1c-5.8 2.6-10.8 1.4-19.3 3.9-11.8 3.5-10.4 11.1-23 10.5-4.8-.2-9.4-2.3-10.8-6.7-1.7-5.2-1.2-10 .3-12.8 1.7-3.1 5.4-6 5.5-13 .2-8.2-3.5-9-1.5-19 2.6-13.2 4.3-14.3 4.3-23.7 0-8.7-4.6-12.9-10.3-20.3-5.7-7.3-17-16.5-31.5-16.5-17.8 0-31 12-37.5 26.5-3.7 8.2-6.4 25.7-4.3 40.2C59.9 243.6 67 255 67 255s8 16 6 24.5c-2 8.7-17.5 12-29.5 6-3.6-1.8-9.3-6.2-12.9-10.8s-10.4-11-17.1-13.7C.8 255.8 0 248 0 248V104.2z"/><path d="M162 301h24l-5-21.7-17-3.8"/><path fill="#A96848" d="M101.7 278.3c-13.3 0-22.7-3.5-35.2-22.8-10-15.5-11.5-43.5-10-54s6.5-17.5 10-22S82 162 99.5 162c19.5 0 30.5 13 34 17.5s8.5 11.5 10 22 .3 40.2-10 55.5c-7 10.3-17.5 21.3-31.8 21.3z"/></svg>