<svg xmlns="http://www.w3.org/2000/svg" width="200" height="329" viewBox="0 0 200 329"><path fill="#FFF" d="M0 0h200v329H0z"/><path fill="#F5C93F" d="M148.8 127.8c2.3 2.3-.4 10.4-.4 10.4s10.1-5.1 14.1-3.6-.5 8.4-.5 8.4 6-2.5 9 1 1 10 1 10 4.5-1 4.5 5.5-11.5 14-11.5 14 17.5 0 19.5 3-15 15-15 15 14.5 3.5 14.5 7-10 4.5-10 4.5 5 3.5 2.5 5-8 3.5-8 3.5 11.5 4 11.5 8.5-6 4-6 4 3.5 2.5 2 4-10 .5-10 .5 11 12 8.5 14.5-18.5-4-18.5-4 7 7.5 2.5 8.5S147 245 147 245s4 4.5 1 5-8-1.5-8-1.5 7 13 5 15-12.5-8.5-12.5-8.5 2 10-2.5 12.5c-1.4.8-15.5-21.5-15.5-21.5s2.5 23-4 24.5-10.5-26-10.5-26-1.6 25.3-9 26.5c-3 .5-4.5-9.5-4.5-9.5s-.5 9.5-3 9.5c-4.6 0-5.5-17.5-5.5-17.5s-6 17-8 17c-5 0-.5-19.5-.5-19.5s-7 12-11 12-1.5-13.5-1.5-13.5-9.5 8.5-11.5 6 3-15.5 3-15.5-9.5 2-12.5 0 5-10 5-10-12.5-1-9-4 9-7.5 9-7.5-13.5 3.5-19-2 18-12 18-12-9.5-4-6.5-8 7-2.5 7-2.5S23 185 21 180.5s11.5-2.5 11.5-2.5-5-6.5-1-9c2.5-1.6-10-9-7.5-11s11.5 0 11.5 0-3-5 0-5.5S43 155 43 155s-16-24-12-27 12 10.5 12 10.5-.8-5 4.8-4.5S61 146.5 61 146.5s-6.9-28.6 0-29.5c4-.5 8 7 8 7s-2-10.5 3.5-7.5 5.5 5 5.5 5-2.5-13.5 1.5-12.5 7 9 7 9 1.5-8.5 4.5-7.5 4.5 7 4.5 7 2-12.5 6-9 6 11.5 6 11.5 3.5-6.5 7-6.5 2.5 4.5 2.5 4.5 2-4.5 5.5-4 4.5 6.5 4.5 6.5 4.5-7.5 8.5-6 2 10.5 2 10.5 7-8 9.5-5-2.5 8.5-2.5 8.5 2.5-2.5 4.3-.7z"/><circle fill="#432944" cx="100" cy="193.5" r="42.5"/></svg>